<svg xmlns="http://www.w3.org/2000/svg" width="36.432" height="30" viewBox="0 0 36.432 30">
  <g id="cabaret" transform="translate(-1298.353 -510.218)">
    <path id="Path_17" data-name="Path 17" d="M956.943,396.791a.843.843,0,1,1,.843.825.834.834,0,0,1-.843-.825" transform="translate(364.318 119.832)" fill="rgba(0,0,0,0.3)"/>
    <path id="Path_18" data-name="Path 18" d="M945.2,396.791a.843.843,0,1,1,.843.825.834.834,0,0,1-.843-.825" transform="translate(364.657 119.832)" fill="rgba(0,0,0,0.3)"/>
    <path id="Path_19" data-name="Path 19" d="M951.915,391.868a.825.825,0,1,1,.843-.825.834.834,0,0,1-.843.825" transform="translate(364.488 120)" fill="rgba(0,0,0,0.3)"/>
    <path id="Path_20" data-name="Path 20" d="M951.915,403.363a.825.825,0,1,1,.843-.825.834.834,0,0,1-.843.825" transform="translate(364.488 119.665)" fill="rgba(0,0,0,0.3)"/>
    <path id="Path_21" data-name="Path 21" d="M948.359,393.31a.856.856,0,0,1-1.192,0,.813.813,0,0,1,0-1.167.856.856,0,0,1,1.192,0,.813.813,0,0,1,0,1.167" transform="translate(364.608 120)" fill="rgba(0,0,0,0.3)"/>
    <path id="Path_22" data-name="Path 22" d="M956.662,401.438a.856.856,0,0,1-1.192,0,.813.813,0,0,1,0-1.167.856.856,0,0,1,1.192,0,.813.813,0,0,1,0,1.167" transform="translate(364.368 119.714)" fill="rgba(0,0,0,0.3)"/>
    <path id="Path_23" data-name="Path 23" d="M955.471,393.31a.812.812,0,0,1,0-1.167.855.855,0,0,1,1.191,0,.812.812,0,0,1,0,1.167.855.855,0,0,1-1.191,0" transform="translate(364.368 120)" fill="rgba(0,0,0,0.3)"/>
    <path id="Path_24" data-name="Path 24" d="M947.167,401.438a.813.813,0,0,1,0-1.167.856.856,0,0,1,1.192,0,.813.813,0,0,1,0,1.167.856.856,0,0,1-1.192,0" transform="translate(364.608 119.714)" fill="rgba(0,0,0,0.3)"/>
    <path id="Path_25" data-name="Path 25" d="M956,396.791a4.017,4.017,0,1,1-4.017-3.932A3.975,3.975,0,0,1,956,396.791" transform="translate(364.486 120)" fill="rgba(0,0,0,0.3)"/>
    <path id="Path_26" data-name="Path 26" d="M956.943,414.5a.843.843,0,1,1,.843.825.834.834,0,0,1-.843-.825" transform="translate(364.318 119.316)" fill="rgba(0,0,0,0.3)"/>
    <path id="Path_27" data-name="Path 27" d="M945.2,414.5a.843.843,0,1,1,.843.825.834.834,0,0,1-.843-.825" transform="translate(364.657 119.316)" fill="rgba(0,0,0,0.3)"/>
    <path id="Path_28" data-name="Path 28" d="M951.915,409.575a.825.825,0,1,1,.843-.825.834.834,0,0,1-.843.825" transform="translate(364.488 119.483)" fill="rgba(0,0,0,0.3)"/>
    <path id="Path_29" data-name="Path 29" d="M951.915,421.07a.825.825,0,1,1,.843-.825.834.834,0,0,1-.843.825" transform="translate(364.488 119.148)" fill="rgba(0,0,0,0.3)"/>
    <path id="Path_30" data-name="Path 30" d="M948.359,411.017a.856.856,0,0,1-1.192,0,.813.813,0,0,1,0-1.167.856.856,0,0,1,1.192,0,.813.813,0,0,1,0,1.167" transform="translate(364.608 119.434)" fill="rgba(0,0,0,0.3)"/>
    <path id="Path_31" data-name="Path 31" d="M956.662,419.145a.856.856,0,0,1-1.192,0,.813.813,0,0,1,0-1.167.856.856,0,0,1,1.192,0,.813.813,0,0,1,0,1.167" transform="translate(364.368 119.148)" fill="rgba(0,0,0,0.3)"/>
    <path id="Path_32" data-name="Path 32" d="M955.471,411.017a.812.812,0,0,1,0-1.167.855.855,0,0,1,1.191,0,.812.812,0,0,1,0,1.167.855.855,0,0,1-1.191,0" transform="translate(364.368 119.434)" fill="rgba(0,0,0,0.3)"/>
    <path id="Path_33" data-name="Path 33" d="M947.167,419.145a.813.813,0,0,1,0-1.167.856.856,0,0,1,1.192,0,.813.813,0,0,1,0,1.167.856.856,0,0,1-1.192,0" transform="translate(364.608 119.148)" fill="rgba(0,0,0,0.3)"/>
    <path id="Path_34" data-name="Path 34" d="M956,414.5a4.017,4.017,0,1,1-4.017-3.932A3.975,3.975,0,0,1,956,414.5" transform="translate(364.486 119.148)" fill="rgba(0,0,0,0.3)"/>
    <path id="Path_35" data-name="Path 35" d="M945.1,405.59a.843.843,0,1,1,.843.825.834.834,0,0,1-.843-.825" transform="translate(364.66 119.576)" fill="rgba(0,0,0,0.3)"/>
    <path id="Path_36" data-name="Path 36" d="M933.353,405.59a.843.843,0,1,1,.843.825.834.834,0,0,1-.843-.825" transform="translate(365 119.576)" fill="rgba(0,0,0,0.3)"/>
    <path id="Path_37" data-name="Path 37" d="M940.067,400.667a.825.825,0,1,1,.843-.825.834.834,0,0,1-.843.825" transform="translate(364.83 119.743)" fill="rgba(0,0,0,0.3)"/>
    <path id="Path_38" data-name="Path 38" d="M940.067,412.162a.825.825,0,1,1,.843-.825.834.834,0,0,1-.843.825" transform="translate(364.83 119.408)" fill="rgba(0,0,0,0.3)"/>
    <path id="Path_39" data-name="Path 39" d="M936.511,402.109a.856.856,0,0,1-1.192,0,.813.813,0,0,1,0-1.167.856.856,0,0,1,1.192,0,.813.813,0,0,1,0,1.167" transform="translate(365 119.694)" fill="rgba(0,0,0,0.3)"/>
    <path id="Path_40" data-name="Path 40" d="M944.815,410.237a.856.856,0,0,1-1.192,0,.813.813,0,0,1,0-1.167.856.856,0,0,1,1.192,0,.813.813,0,0,1,0,1.167" transform="translate(364.71 119.457)" fill="rgba(0,0,0,0.3)"/>
    <path id="Path_41" data-name="Path 41" d="M943.623,402.109a.813.813,0,0,1,0-1.167.856.856,0,0,1,1.192,0,.813.813,0,0,1,0,1.167.856.856,0,0,1-1.192,0" transform="translate(364.71 119.694)" fill="rgba(0,0,0,0.3)"/>
    <path id="Path_42" data-name="Path 42" d="M935.32,410.237a.813.813,0,0,1,0-1.167.856.856,0,0,1,1.192,0,.813.813,0,0,1,0,1.167.856.856,0,0,1-1.192,0" transform="translate(365 119.457)" fill="rgba(0,0,0,0.3)"/>
    <path id="Path_43" data-name="Path 43" d="M944.155,405.59a4.017,4.017,0,1,1-4.017-3.932,3.975,3.975,0,0,1,4.017,3.932" transform="translate(365 119.576)" fill="rgba(0,0,0,0.3)"/>
    <path id="Path_44" data-name="Path 44" d="M969.135,405.59a.843.843,0,1,1,.842.825.833.833,0,0,1-.842-.825" transform="translate(363.965 119.576)" fill="rgba(0,0,0,0.3)"/>
    <path id="Path_45" data-name="Path 45" d="M957.392,405.59a.843.843,0,1,1,.843.825.834.834,0,0,1-.843-.825" transform="translate(364.305 119.576)" fill="rgba(0,0,0,0.3)"/>
    <path id="Path_46" data-name="Path 46" d="M964.106,400.667a.825.825,0,1,1,.843-.825.834.834,0,0,1-.843.825" transform="translate(364.135 119.743)" fill="rgba(0,0,0,0.3)"/>
    <path id="Path_47" data-name="Path 47" d="M964.106,412.162a.825.825,0,1,1,.843-.825.834.834,0,0,1-.843.825" transform="translate(364.135 119.408)" fill="rgba(0,0,0,0.3)"/>
    <path id="Path_48" data-name="Path 48" d="M960.55,402.109a.856.856,0,0,1-1.192,0,.813.813,0,0,1,0-1.167.856.856,0,0,1,1.192,0,.813.813,0,0,1,0,1.167" transform="translate(364.255 119.694)" fill="rgba(0,0,0,0.3)"/>
    <path id="Path_49" data-name="Path 49" d="M968.854,410.237a.857.857,0,0,1-1.193,0,.813.813,0,0,1,0-1.167.857.857,0,0,1,1.193,0,.815.815,0,0,1,0,1.167" transform="translate(363.965 119.457)" fill="rgba(0,0,0,0.3)"/>
    <path id="Path_50" data-name="Path 50" d="M967.662,402.109a.813.813,0,0,1,0-1.167.856.856,0,0,1,1.192,0,.813.813,0,0,1,0,1.167.856.856,0,0,1-1.192,0" transform="translate(363.965 119.694)" fill="rgba(0,0,0,0.3)"/>
    <path id="Path_51" data-name="Path 51" d="M959.359,410.237a.813.813,0,0,1,0-1.167.856.856,0,0,1,1.192,0,.813.813,0,0,1,0,1.167.856.856,0,0,1-1.192,0" transform="translate(364.255 119.457)" fill="rgba(0,0,0,0.3)"/>
    <path id="Path_52" data-name="Path 52" d="M968.194,405.59a4.017,4.017,0,1,1-4.017-3.932,3.975,3.975,0,0,1,4.017,3.932" transform="translate(363.965 119.576)" fill="rgba(0,0,0,0.3)"/>
  </g>
</svg>
