<svg xmlns="http://www.w3.org/2000/svg" width="23.548" height="30" viewBox="0 0 23.548 30">
  <g id="classroom" transform="translate(-1375.52 -510.218)">
    <rect id="Rectangle_3" data-name="Rectangle 3" width="9.9" height="3.06" transform="translate(1382.246 513.008)" fill="rgba(0,0,0,0.3)"/>
    <rect id="Rectangle_5" data-name="Rectangle 5" width="3.667" height="2.142" transform="translate(1375.52 521.047)" fill="rgba(0,0,0,0.3)"/>
    <rect id="Rectangle_7" data-name="Rectangle 7" width="3.668" height="2.142" transform="translate(1380.946 521.047)" fill="rgba(0,0,0,0.3)"/>
    <rect id="Rectangle_9" data-name="Rectangle 9" width="3.667" height="2.142" transform="translate(1389.974 521.047)" fill="rgba(0,0,0,0.3)"/>
    <rect id="Rectangle_11" data-name="Rectangle 11" width="3.667" height="2.142" transform="translate(1395.401 521.047)" fill="rgba(0,0,0,0.3)"/>
    <rect id="Rectangle_13" data-name="Rectangle 13" width="3.667" height="2.142" transform="translate(1375.52 526.723)" fill="rgba(0,0,0,0.3)"/>
    <rect id="Rectangle_15" data-name="Rectangle 15" width="3.668" height="2.142" transform="translate(1380.946 526.723)" fill="rgba(0,0,0,0.3)"/>
    <rect id="Rectangle_17" data-name="Rectangle 17" width="3.667" height="2.142" transform="translate(1389.974 526.723)" fill="rgba(0,0,0,0.3)"/>
    <rect id="Rectangle_19" data-name="Rectangle 19" width="3.667" height="2.142" transform="translate(1395.401 526.723)" fill="rgba(0,0,0,0.3)"/>
    <rect id="Rectangle_21" data-name="Rectangle 21" width="3.667" height="2.142" transform="translate(1375.52 532.4)" fill="rgba(0,0,0,0.3)"/>
    <rect id="Rectangle_23" data-name="Rectangle 23" width="3.668" height="2.142" transform="translate(1380.946 532.4)" fill="rgba(0,0,0,0.3)"/>
    <rect id="Rectangle_25" data-name="Rectangle 25" width="3.667" height="2.142" transform="translate(1389.974 532.4)" fill="rgba(0,0,0,0.3)"/>
    <rect id="Rectangle_27" data-name="Rectangle 27" width="3.667" height="2.142" transform="translate(1395.401 532.4)" fill="rgba(0,0,0,0.3)"/>
    <rect id="Rectangle_29" data-name="Rectangle 29" width="3.667" height="2.142" transform="translate(1375.52 538.076)" fill="rgba(0,0,0,0.3)"/>
    <rect id="Rectangle_31" data-name="Rectangle 31" width="3.668" height="2.142" transform="translate(1380.946 538.076)" fill="rgba(0,0,0,0.3)"/>
    <rect id="Rectangle_33" data-name="Rectangle 33" width="3.667" height="2.142" transform="translate(1389.974 538.076)" fill="rgba(0,0,0,0.3)"/>
    <rect id="Rectangle_35" data-name="Rectangle 35" width="3.667" height="2.142" transform="translate(1395.401 538.076)" fill="rgba(0,0,0,0.3)"/>
    <path id="Path_53" data-name="Path 53" d="M1021.761,391.163a.945.945,0,1,1-.945-.945.945.945,0,0,1,.945.945" transform="translate(364.72 120)" fill="rgba(0,0,0,0.3)"/>
    <path id="Path_54" data-name="Path 54" d="M1025.181,391.163a.945.945,0,1,1-.945-.945.945.945,0,0,1,.945.945" transform="translate(364.617 120)" fill="rgba(0,0,0,0.3)"/>
    <path id="Path_55" data-name="Path 55" d="M1013.3,399.533a.945.945,0,1,1-.945-.945.945.945,0,0,1,.945.945" transform="translate(365 119.754)" fill="rgba(0,0,0,0.3)"/>
    <path id="Path_56" data-name="Path 56" d="M1018.908,399.533a.945.945,0,1,1-.945-.945.945.945,0,0,1,.945.945" transform="translate(364.805 119.754)" fill="rgba(0,0,0,0.3)"/>
    <path id="Path_57" data-name="Path 57" d="M1028.238,399.533a.945.945,0,1,1-.945-.945.945.945,0,0,1,.945.945" transform="translate(364.526 119.754)" fill="rgba(0,0,0,0.3)"/>
    <path id="Path_58" data-name="Path 58" d="M1033.849,399.533a.945.945,0,1,1-.946-.945.946.946,0,0,1,.946.945" transform="translate(364.331 119.754)" fill="rgba(0,0,0,0.3)"/>
    <path id="Path_59" data-name="Path 59" d="M1013.3,405.383a.945.945,0,1,1-.945-.945.945.945,0,0,1,.945.945" transform="translate(365 119.582)" fill="rgba(0,0,0,0.3)"/>
    <path id="Path_60" data-name="Path 60" d="M1018.908,405.383a.945.945,0,1,1-.945-.945.945.945,0,0,1,.945.945" transform="translate(364.805 119.582)" fill="rgba(0,0,0,0.3)"/>
    <path id="Path_61" data-name="Path 61" d="M1028.238,405.383a.945.945,0,1,1-.945-.945.945.945,0,0,1,.945.945" transform="translate(364.526 119.582)" fill="rgba(0,0,0,0.3)"/>
    <path id="Path_62" data-name="Path 62" d="M1033.849,405.383a.945.945,0,1,1-.946-.945.946.946,0,0,1,.946.945" transform="translate(364.331 119.582)" fill="rgba(0,0,0,0.3)"/>
    <path id="Path_63" data-name="Path 63" d="M1013.3,411.233a.945.945,0,1,1-.945-.945.945.945,0,0,1,.945.945" transform="translate(365 119.41)" fill="rgba(0,0,0,0.3)"/>
    <path id="Path_64" data-name="Path 64" d="M1018.908,411.233a.945.945,0,1,1-.945-.945.945.945,0,0,1,.945.945" transform="translate(364.805 119.41)" fill="rgba(0,0,0,0.3)"/>
    <path id="Path_65" data-name="Path 65" d="M1028.238,411.233a.945.945,0,1,1-.945-.945.945.945,0,0,1,.945.945" transform="translate(364.526 119.41)" fill="rgba(0,0,0,0.3)"/>
    <path id="Path_66" data-name="Path 66" d="M1033.849,411.233a.945.945,0,1,1-.946-.945.946.946,0,0,1,.946.945" transform="translate(364.331 119.41)" fill="rgba(0,0,0,0.3)"/>
    <path id="Path_67" data-name="Path 67" d="M1013.3,417.083a.945.945,0,1,1-.945-.945.945.945,0,0,1,.945.945" transform="translate(365 119.148)" fill="rgba(0,0,0,0.3)"/>
    <path id="Path_68" data-name="Path 68" d="M1018.908,417.083a.945.945,0,1,1-.945-.945.945.945,0,0,1,.945.945" transform="translate(364.805 119.148)" fill="rgba(0,0,0,0.3)"/>
    <path id="Path_69" data-name="Path 69" d="M1028.238,417.083a.945.945,0,1,1-.945-.945.945.945,0,0,1,.945.945" transform="translate(364.526 119.148)" fill="rgba(0,0,0,0.3)"/>
    <path id="Path_70" data-name="Path 70" d="M1033.849,417.083a.945.945,0,1,1-.946-.945.946.946,0,0,1,.946.945" transform="translate(364.331 119.148)" fill="rgba(0,0,0,0.3)"/>
  </g>
</svg>
