<svg xmlns="http://www.w3.org/2000/svg" width="13.931" height="10" viewBox="0 0 13.931 10">
  <g id="people" transform="translate(-1316 -599)">
    <path id="Path_71" data-name="Path 71" d="M720.482,785.564a1.468,1.468,0,1,0-1.468-1.468,1.468,1.468,0,0,0,1.468,1.468" transform="translate(598.48 -182.628)" fill="rgba(0,0,0,0.3)"/>
    <path id="Path_72" data-name="Path 72" d="M728.079,785.564a1.468,1.468,0,1,0-1.468-1.468,1.468,1.468,0,0,0,1.468,1.468" transform="translate(598.89 -182.628)" fill="rgba(0,0,0,0.3)"/>
    <path id="Path_73" data-name="Path 73" d="M728.4,786.211a2.21,2.21,0,0,0-1.56.719,2.748,2.748,0,0,0-2.266-1.693,2.813,2.813,0,0,0-2.328,1.812,2.277,2.277,0,0,0-1.673-.838c-1.686,0-3.052,2.294-3.052,5.123h13.931c0-2.829-1.366-5.123-3.052-5.123" transform="translate(598.48 -182.334)" fill="rgba(0,0,0,0.3)"/>
    <path id="Path_74" data-name="Path 74" d="M728.079,785.564a1.468,1.468,0,1,0-1.468-1.468,1.468,1.468,0,0,0,1.468,1.468" transform="translate(594.677 -183.628)" fill="rgba(0,0,0,0.3)"/>
  </g>
</svg>
