<svg xmlns="http://www.w3.org/2000/svg" width="24.495" height="24.496" viewBox="0 0 24.495 24.496">
  <path id="phone" d="M23.591,16.812l-5.186-2.225a1.5,1.5,0,0,0-1.746.426l-2.11,2.579A16.745,16.745,0,0,1,6.913,9.956l2.579-2.11A1.5,1.5,0,0,0,9.918,6.1L7.693.909A1.5,1.5,0,0,0,5.98.043L1.158,1.158A1.486,1.486,0,0,0,0,2.613,21.883,21.883,0,0,0,21.888,24.5a1.494,1.494,0,0,0,1.46-1.163l1.109-4.818a1.493,1.493,0,0,0-.866-1.708Zm-1.732,6.157A20.346,20.346,0,0,1,1.536,2.646L6.3,1.546,8.5,6.684,5.019,9.53a18.487,18.487,0,0,0,9.956,9.956L17.821,16l5.138,2.2Z" transform="translate(0 -0.005)" fill="#1870ca"/>
</svg>
