<svg xmlns="http://www.w3.org/2000/svg" width="44.507" height="30" viewBox="0 0 44.507 30">
  <g id="theater" transform="translate(-1435.203 -510.897)">
    <rect id="Rectangle_37" data-name="Rectangle 37" width="31.084" height="4.166" transform="translate(1441.914 510.897)" fill="rgba(0,0,0,0.3)"/>
    <rect id="Rectangle_38" data-name="Rectangle 38" width="5.844" height="2.118" transform="translate(1435.203 518.749)" fill="rgba(0,0,0,0.3)"/>
    <rect id="Rectangle_39" data-name="Rectangle 39" width="5.844" height="2.118" transform="translate(1442.015 518.749)" fill="rgba(0,0,0,0.3)"/>
    <rect id="Rectangle_40" data-name="Rectangle 40" width="5.844" height="2.118" transform="translate(1448.827 518.749)" fill="rgba(0,0,0,0.3)"/>
    <rect id="Rectangle_41" data-name="Rectangle 41" width="5.845" height="2.118" transform="translate(1460.24 518.749)" fill="rgba(0,0,0,0.3)"/>
    <rect id="Rectangle_42" data-name="Rectangle 42" width="5.845" height="2.118" transform="translate(1467.052 518.749)" fill="rgba(0,0,0,0.3)"/>
    <rect id="Rectangle_43" data-name="Rectangle 43" width="5.845" height="2.118" transform="translate(1473.865 518.749)" fill="rgba(0,0,0,0.3)"/>
    <rect id="Rectangle_44" data-name="Rectangle 44" width="5.844" height="2.118" transform="translate(1435.203 522.088)" fill="rgba(0,0,0,0.3)"/>
    <rect id="Rectangle_45" data-name="Rectangle 45" width="5.844" height="2.118" transform="translate(1442.015 522.088)" fill="rgba(0,0,0,0.3)"/>
    <rect id="Rectangle_46" data-name="Rectangle 46" width="5.844" height="2.118" transform="translate(1448.827 522.088)" fill="rgba(0,0,0,0.3)"/>
    <rect id="Rectangle_47" data-name="Rectangle 47" width="5.845" height="2.118" transform="translate(1460.24 522.088)" fill="rgba(0,0,0,0.3)"/>
    <rect id="Rectangle_48" data-name="Rectangle 48" width="5.845" height="2.118" transform="translate(1467.052 522.088)" fill="rgba(0,0,0,0.3)"/>
    <rect id="Rectangle_49" data-name="Rectangle 49" width="5.845" height="2.118" transform="translate(1473.865 522.088)" fill="rgba(0,0,0,0.3)"/>
    <rect id="Rectangle_50" data-name="Rectangle 50" width="5.844" height="2.118" transform="translate(1435.203 525.426)" fill="rgba(0,0,0,0.3)"/>
    <rect id="Rectangle_51" data-name="Rectangle 51" width="5.844" height="2.118" transform="translate(1442.015 525.426)" fill="rgba(0,0,0,0.3)"/>
    <rect id="Rectangle_52" data-name="Rectangle 52" width="5.844" height="2.118" transform="translate(1448.827 525.426)" fill="rgba(0,0,0,0.3)"/>
    <rect id="Rectangle_53" data-name="Rectangle 53" width="5.845" height="2.118" transform="translate(1460.24 525.426)" fill="rgba(0,0,0,0.3)"/>
    <rect id="Rectangle_54" data-name="Rectangle 54" width="5.845" height="2.118" transform="translate(1467.052 525.426)" fill="rgba(0,0,0,0.3)"/>
    <rect id="Rectangle_55" data-name="Rectangle 55" width="5.845" height="2.118" transform="translate(1473.865 525.426)" fill="rgba(0,0,0,0.3)"/>
    <rect id="Rectangle_56" data-name="Rectangle 56" width="5.844" height="2.118" transform="translate(1435.203 528.764)" fill="rgba(0,0,0,0.3)"/>
    <rect id="Rectangle_57" data-name="Rectangle 57" width="5.844" height="2.118" transform="translate(1442.015 528.764)" fill="rgba(0,0,0,0.3)"/>
    <rect id="Rectangle_58" data-name="Rectangle 58" width="5.844" height="2.118" transform="translate(1448.827 528.764)" fill="rgba(0,0,0,0.3)"/>
    <rect id="Rectangle_59" data-name="Rectangle 59" width="5.845" height="2.118" transform="translate(1460.24 528.764)" fill="rgba(0,0,0,0.3)"/>
    <rect id="Rectangle_60" data-name="Rectangle 60" width="5.845" height="2.118" transform="translate(1467.052 528.764)" fill="rgba(0,0,0,0.3)"/>
    <rect id="Rectangle_61" data-name="Rectangle 61" width="5.845" height="2.118" transform="translate(1473.865 528.764)" fill="rgba(0,0,0,0.3)"/>
    <rect id="Rectangle_62" data-name="Rectangle 62" width="5.844" height="2.118" transform="translate(1435.203 532.102)" fill="rgba(0,0,0,0.3)"/>
    <rect id="Rectangle_63" data-name="Rectangle 63" width="5.844" height="2.118" transform="translate(1442.015 532.102)" fill="rgba(0,0,0,0.3)"/>
    <rect id="Rectangle_64" data-name="Rectangle 64" width="5.844" height="2.118" transform="translate(1448.827 532.102)" fill="rgba(0,0,0,0.3)"/>
    <rect id="Rectangle_65" data-name="Rectangle 65" width="5.845" height="2.118" transform="translate(1460.24 532.102)" fill="rgba(0,0,0,0.3)"/>
    <rect id="Rectangle_66" data-name="Rectangle 66" width="5.845" height="2.118" transform="translate(1467.052 532.102)" fill="rgba(0,0,0,0.3)"/>
    <rect id="Rectangle_67" data-name="Rectangle 67" width="5.845" height="2.118" transform="translate(1473.865 532.102)" fill="rgba(0,0,0,0.3)"/>
    <rect id="Rectangle_68" data-name="Rectangle 68" width="5.844" height="2.118" transform="translate(1435.203 535.487)" fill="rgba(0,0,0,0.3)"/>
    <rect id="Rectangle_69" data-name="Rectangle 69" width="5.844" height="2.118" transform="translate(1442.015 535.487)" fill="rgba(0,0,0,0.3)"/>
    <rect id="Rectangle_70" data-name="Rectangle 70" width="5.844" height="2.118" transform="translate(1448.827 535.487)" fill="rgba(0,0,0,0.3)"/>
    <rect id="Rectangle_71" data-name="Rectangle 71" width="5.845" height="2.118" transform="translate(1460.24 535.487)" fill="rgba(0,0,0,0.3)"/>
    <rect id="Rectangle_72" data-name="Rectangle 72" width="5.845" height="2.118" transform="translate(1467.052 535.487)" fill="rgba(0,0,0,0.3)"/>
    <rect id="Rectangle_73" data-name="Rectangle 73" width="5.845" height="2.118" transform="translate(1473.865 535.487)" fill="rgba(0,0,0,0.3)"/>
    <rect id="Rectangle_74" data-name="Rectangle 74" width="5.844" height="2.118" transform="translate(1435.203 538.779)" fill="rgba(0,0,0,0.3)"/>
    <rect id="Rectangle_75" data-name="Rectangle 75" width="5.844" height="2.118" transform="translate(1442.015 538.779)" fill="rgba(0,0,0,0.3)"/>
    <rect id="Rectangle_76" data-name="Rectangle 76" width="5.844" height="2.118" transform="translate(1448.827 538.779)" fill="rgba(0,0,0,0.3)"/>
    <rect id="Rectangle_77" data-name="Rectangle 77" width="5.845" height="2.118" transform="translate(1460.24 538.779)" fill="rgba(0,0,0,0.3)"/>
    <rect id="Rectangle_78" data-name="Rectangle 78" width="5.845" height="2.118" transform="translate(1467.052 538.779)" fill="rgba(0,0,0,0.3)"/>
    <rect id="Rectangle_79" data-name="Rectangle 79" width="5.845" height="2.118" transform="translate(1473.865 538.779)" fill="rgba(0,0,0,0.3)"/>
  </g>
</svg>
