<svg xmlns="http://www.w3.org/2000/svg" width="30.385" height="30" viewBox="0 0 30.385 30">
  <g id="u-shape" transform="translate(-1233.023 -510.218)">
    <path id="Path_1" data-name="Path 1" d="M881.922,392.108a.945.945,0,1,1,.945-.945.945.945,0,0,1-.945.945" transform="translate(366.286 120)" fill="rgba(0,0,0,0.3)"/>
    <path id="Path_2" data-name="Path 2" d="M886.111,392.108a.945.945,0,1,1,.945-.945.945.945,0,0,1-.945.945" transform="translate(366.701 120)" fill="rgba(0,0,0,0.3)"/>
    <path id="Path_3" data-name="Path 3" d="M890.3,392.108a.945.945,0,1,1,.945-.945.945.945,0,0,1-.945.945" transform="translate(367.117 120)" fill="rgba(0,0,0,0.3)"/>
    <path id="Path_4" data-name="Path 4" d="M873.544,392.108a.945.945,0,1,1,.945-.945.945.945,0,0,1-.945.945" transform="translate(365.454 120)" fill="rgba(0,0,0,0.3)"/>
    <path id="Path_5" data-name="Path 5" d="M877.733,392.108a.945.945,0,1,1,.945-.945.945.945,0,0,1-.945.945" transform="translate(365.87 120)" fill="rgba(0,0,0,0.3)"/>
    <path id="Path_6" data-name="Path 6" d="M893.945,405.181a.945.945,0,1,1,.945.945.945.945,0,0,1-.945-.945" transform="translate(367.573 121.392)" fill="rgba(0,0,0,0.3)"/>
    <path id="Path_7" data-name="Path 7" d="M893.945,409.37a.945.945,0,1,1,.945.945.945.945,0,0,1-.945-.945" transform="translate(367.573 121.809)" fill="rgba(0,0,0,0.3)"/>
    <path id="Path_8" data-name="Path 8" d="M893.945,413.559a.945.945,0,1,1,.945.945.945.945,0,0,1-.945-.945" transform="translate(367.573 122.54)" fill="rgba(0,0,0,0.3)"/>
    <path id="Path_9" data-name="Path 9" d="M893.945,396.8a.945.945,0,1,1,.945.945.945.945,0,0,1-.945-.945" transform="translate(367.573 120.56)" fill="rgba(0,0,0,0.3)"/>
    <path id="Path_10" data-name="Path 10" d="M893.945,400.992a.945.945,0,1,1,.945.945.945.945,0,0,1-.945-.945" transform="translate(367.573 120.976)" fill="rgba(0,0,0,0.3)"/>
    <path id="Path_11" data-name="Path 11" d="M868.023,405.181a.945.945,0,1,1,.945.945.945.945,0,0,1-.945-.945" transform="translate(365 121.392)" fill="rgba(0,0,0,0.3)"/>
    <path id="Path_12" data-name="Path 12" d="M868.023,409.37a.945.945,0,1,1,.945.945.945.945,0,0,1-.945-.945" transform="translate(365 121.809)" fill="rgba(0,0,0,0.3)"/>
    <path id="Path_13" data-name="Path 13" d="M868.023,413.559a.945.945,0,1,1,.945.945.945.945,0,0,1-.945-.945" transform="translate(365 122.54)" fill="rgba(0,0,0,0.3)"/>
    <path id="Path_14" data-name="Path 14" d="M868.023,396.8a.945.945,0,1,1,.945.945.945.945,0,0,1-.945-.945" transform="translate(365 120.56)" fill="rgba(0,0,0,0.3)"/>
    <path id="Path_15" data-name="Path 15" d="M868.023,400.992a.945.945,0,1,1,.945.945.945.945,0,0,1-.945-.945" transform="translate(365 120.976)" fill="rgba(0,0,0,0.3)"/>
    <path id="Path_16" data-name="Path 16" d="M894.863,394.037h-23.2v26.181h5.2V399.6h12.971v20.621h5.2V394.037Z" transform="translate(365 120)" fill="rgba(0,0,0,0.3)"/>
  </g>
</svg>
